<?xml version="1.0" standalone="no"?>
<!DOCTYPE svg PUBLIC "-//W3C//DTD SVG 20010904//EN"
 "http://www.w3.org/TR/2001/REC-SVG-20010904/DTD/svg10.dtd">
<svg version="1.0" xmlns="http://www.w3.org/2000/svg"
 width="16.000000pt" height="16.000000pt" viewBox="0 0 16.000000 16.000000"
 preserveAspectRatio="xMidYMid meet">
<metadata>
Created by potrace 1.11, written by Peter Selinger 2001-2013
</metadata>
<g transform="translate(0.000000,16.000000) scale(0.003125,-0.003125)"
fill="#000000" stroke="none">
<path d="M981 3182 c-69 -119 -176 -305 -238 -413 -62 -107 -113 -201 -113
-209 0 -7 52 -103 115 -214 64 -111 119 -208 124 -216 4 -8 58 -104 121 -212
l114 -198 970 0 971 1 242 419 242 420 -242 420 -242 420 -488 -2 -488 -3
-240 -414 c-131 -228 -239 -417 -239 -420 0 -4 54 -100 119 -214 l120 -207
-242 0 -242 1 -120 210 c-66 115 -119 213 -118 217 1 4 108 191 237 416 130
225 236 411 236 413 0 2 -107 3 -237 3 l-238 -1 -124 -217z m1941 -411 c65
-112 118 -207 118 -210 0 -3 -53 -98 -118 -211 l-118 -205 -245 -3 -244 -2
-122 210 -121 210 121 210 122 210 244 -2 245 -3 118 -204z"/>
<path d="M3698 3113 c91 -159 200 -348 243 -422 l77 -133 -53 -92 c-329 -570
-425 -738 -425 -742 0 -2 107 -3 237 -2 l237 3 121 207 c66 113 175 301 243
417 l123 211 -241 420 -242 420 -243 0 -243 0 166 -287z"/>
</g>
</svg>
